:FULLY-SPECIFIED
:FORCE-ALL-JOINTS-BE-3DOF
:DEGREES
17
root 7.6123 15.9156 -34.6104 7.02144 -4.16762 -5.49271
lfemur -40.2986 -0.535781 -7.59437
ltibia 20.2098 -0 0
lfoot -15.4199 15.2454 -0.0212144
ltoes -11.9042 0 0
rfemur 5.26739 6.52252 31.3067
rtibia 11.3628 -0 0
rfoot -19.2683 -1.32207 0.00413079
rtoes -6.92164 0 0
lowerback -6.16842 1.18891 2.18256
upperback -1.2019 1.36675 2.93661
thorax 2.20126 0.688294 1.91139
lowerneck -19.9124 -4.91532 -11.7311
upperneck 15.849 -6.46313 15.0281
head 9.17492 -2.21111 6.29241
lclavicle 2.82647e-15 -7.22251e-15 0
lhumerus -39.7554 -8.07636 89.784
lradius 29.1614 -0 0
lwrist 7.03399 0 0
lhand -7.77585 -22.9708 -0.000881149
lfingers 7.12502 0 0
lthumb 18.1245 6.20462 -0.000883825
rclavicle 2.82647e-15 -7.22251e-15 0
rhumerus -41.0203 19.2118 -88.3078
rradius 62.3334 -0 0
rwrist -34.9291 0 0
rhand -31.3509 -29.3996 -0.000193773
rfingers 7.12502 0 0
rthumb -4.62201 -59.3292 -0.000189046
18
root 7.62458 15.9051 -34.4699 7.0705 -4.60989 -5.79257
lfemur -40.2766 -1.09192 -6.63729
ltibia 19.4499 -0 0
lfoot -15.7252 16.2404 -0.0132579
ltoes -11.2338 0 0
rfemur 6.26767 6.62142 31.5188
rtibia 10.4306 -0 0
rfoot -18.9367 -1.14364 0.00258172
rtoes -6.87826 0 0
lowerback -6.27298 1.30134 2.45049
upperback -1.21477 1.49272 3.00596
thorax 2.2481 0.752565 1.84483
lowerneck -19.947 -4.90224 -11.7617
upperneck 15.9074 -6.42613 14.9696
head 9.19367 -2.1997 6.28372
lclavicle 4.10304e-15 -7.08998e-15 0
lhumerus -39.9815 -8.38303 89.9627
lradius 29.0047 -0 0
lwrist 7.02769 0 0
lhand -7.69827 -23.1335 -0.000550717
lfingers 7.12502 0 0
lthumb 18.1992 6.03503 -0.000552389
rclavicle 4.10304e-15 -7.08998e-15 0
rhumerus -41.2938 19.3049 -88.6801
rradius 62.5355 -0 0
rwrist -34.9195 0 0
rhand -31.3876 -29.3239 -0.000121108
rfingers 7.12502 0 0
rthumb -4.65739 -59.2526 -0.000118154
19
root 7.63687 15.8945 -34.3294 7.12192 -5.0519 -6.09301
lfemur -40.2639 -1.64834 -5.6802
ltibia 18.69 0 0
lfoot -16.0304 17.2354 0
ltoes -10.5633 0 0
rfemur 7.2685 6.71662 31.7327
rtibia 9.49848 0 0
rfoot -18.6051 -0.965217 0
rtoes -6.83488 0 0
lowerback -6.37702 1.41426 2.71823
upperback -1.22749 1.61871 3.07529
thorax 2.29486 0.816891 1.77833
lowerneck -19.9815 -4.88918 -11.7923
upperneck 15.9658 -6.38906 14.9111
head 9.21241 -2.18829 6.27503
lclavicle 5.37961e-15 -6.95746e-15 0
lhumerus -40.2088 -8.689 90.1427
lradius 28.8481 0 0
lwrist 7.0214 0 0
lhand -7.6207 -23.2962 0
lfingers 7.12502 0 0
lthumb 18.2738 5.86544 0
rclavicle 5.37961e-15 -6.95746e-15 0
rhumerus -41.5682 19.3963 -89.053
rradius 62.7376 0 0
rwrist -34.9099 0 0
rhand -31.4242 -29.2481 0
rfingers 7.12502 0 0
rthumb -4.69277 -59.1761 0
20
root 7.65682 15.8804 -34.182 7.07384 -5.53589 -6.22362
lfemur -40.1581 -1.29648 -5.60403
ltibia 18.7344 -0 0
lfoot -15.9616 17.1995 -0.000107899
ltoes -10.8881 0 0
rfemur 8.65166 6.96156 31.731
rtibia 7.9154 -0 0
rfoot -17.6156 -1.12968 -0.00710539
rtoes -8.15017 0 0
lowerback -6.39963 1.52119 2.90598
upperback -1.19042 1.74582 3.04776
thorax 2.35291 0.881804 1.65783
lowerneck -19.946 -4.8573 -11.7134
upperneck 15.928 -6.36982 14.9209
head 9.18817 -2.17524 6.26637
lclavicle 3.26131e-15 -1.04031e-14 0
lhumerus -40.4717 -8.82706 90.1661
lradius 28.7279 -0 0
lwrist 6.80057 0 0
lhand -7.80322 -23.1521 -0.00114778
lfingers 7.12502 0 0
lthumb 18.0982 6.02545 -0.0012264
rclavicle 3.26131e-15 -1.04031e-14 0
rhumerus -41.7611 19.4442 -89.4692
rradius 62.6996 -0 0
rwrist -34.7001 0 0
rhand -31.2448 -29.4527 -0.00160156
rfingers 7.12502 0 0
rthumb -4.51954 -59.3841 -0.00157233
21
root 7.67676 15.8664 -34.0345 7.02683 -6.01999 -6.35394
lfemur -40.0518 -0.944754 -5.52723
ltibia 18.7787 -0 0
lfoot -15.8927 17.1636 -0.000172639
ltoes -11.2129 0 0
rfemur 10.0355 7.20646 31.7353
rtibia 6.33232 -0 0
rfoot -16.626 -1.29424 -0.0113695
rtoes -9.46545 0 0
lowerback -6.4219 1.6282 3.0937
upperback -1.15341 1.87295 3.02031
thorax 2.41082 0.946839 1.53739
lowerneck -19.9104 -4.82548 -11.6345
upperneck 15.8902 -6.35057 14.9307
head 9.16392 -2.1622 6.25771
lclavicle 1.14301e-15 -1.38487e-14 0
lhumerus -40.7348 -8.96501 90.1901
lradius 28.6078 -0 0
lwrist 6.57974 0 0
lhand -7.98575 -23.008 -0.00183645
lfingers 7.12502 0 0
lthumb 17.9225 6.18547 -0.00196226
rclavicle 1.14301e-15 -1.38487e-14 0
rhumerus -41.9544 19.4907 -89.8856
rradius 62.6616 -0 0
rwrist -34.4903 0 0
rhand -31.0654 -29.6573 -0.00256252
rfingers 7.12502 0 0
rthumb -4.34631 -59.5921 -0.00251574
22
root 7.69671 15.8524 -33.8871 6.98089 -6.50419 -6.48398
lfemur -39.9451 -0.593175 -5.44978
ltibia 18.8231 -0 0
lfoot -15.8239 17.1277 -0.000194218
ltoes -11.5378 0 0
rfemur 11.4202 7.45119 31.7455
rtibia 4.74924 -0 0
rfoot -15.6365 -1.45884 -0.012791
rtoes -10.7807 0 0
lowerback -6.44381 1.73527 3.28138
upperback -1.11646 2.0001 2.99294
thorax 2.4686 1.012 1.41701
lowerneck -19.8747 -4.7937 -11.5556
upperneck 15.8524 -6.33131 14.9404
head 9.13967 -2.14915 6.24904
lclavicle -9.75285e-16 -1.72943e-14 0
lhumerus -40.998 -9.10286 90.2148
lradius 28.4876 -0 0
lwrist 6.35891 0 0
lhand -8.16828 -22.8639 -0.00206601
lfingers 7.12502 0 0
lthumb 17.7468 6.34549 -0.00220754
rclavicle -9.75285e-16 -1.72943e-14 0
rhumerus -42.1481 19.5359 -90.3023
rradius 62.6236 -0 0
rwrist -34.2805 0 0
rhand -30.8861 -29.862 -0.00288284
rfingers 7.12502 0 0
rthumb -4.17308 -59.8002 -0.00283021
23
root 7.71666 15.8383 -33.7397 6.936 -6.9885 -6.61376
lfemur -39.8379 -0.241741 -5.37167
ltibia 18.8675 -0 0
lfoot -15.755 17.0917 -0.000172639
ltoes -11.8626 0 0
rfemur 12.8057 7.69561 31.7618
rtibia 3.16616 -0 0
rfoot -14.6469 -1.62345 -0.0113695
rtoes -12.096 0 0
lowerback -6.46537 1.84242 3.46904
upperback -1.07957 2.12727 2.96565
thorax 2.52624 1.07727 1.2967
lowerneck -19.8391 -4.76197 -11.4767
upperneck 15.8146 -6.31205 14.9502
head 9.11542 -2.13612 6.24037
lclavicle -3.09358e-15 -2.07399e-14 0
lhumerus -41.2613 -9.24058 90.2401
lradius 28.3674 -0 0
lwrist 6.13809 0 0
lhand -8.3508 -22.7197 -0.00183645
lfingers 7.12502 0 0
lthumb 17.5712 6.50551 -0.00196226
rclavicle -3.09358e-15 -2.07399e-14 0
rhumerus -42.3422 19.5798 -90.7193
rradius 62.5855 -0 0
rwrist -34.0708 0 0
rhand -30.7067 -30.0666 -0.00256252
rfingers 7.12502 0 0
rthumb -3.99985 -60.0082 -0.00251574
24
root 7.7366 15.8243 -33.5922 6.89218 -7.47291 -6.74329
lfemur -39.7302 0.109545 -5.29291
ltibia 18.9118 -0 0
lfoot -15.6861 17.0558 -0.000107899
ltoes -12.1874 0 0
rfemur 14.1921 7.93956 31.7839
rtibia 1.58308 -0 0
rfoot -13.6573 -1.78801 -0.00710539
rtoes -13.4113 0 0
lowerback -6.48659 1.94964 3.65666
upperback -1.04274 2.25445 2.93844
thorax 2.58375 1.14267 1.17645
lowerneck -19.8034 -4.73029 -11.3978
upperneck 15.7768 -6.29278 14.9599
head 9.09117 -2.12308 6.23169
lclavicle -5.21188e-15 -2.41855e-14 0
lhumerus -41.5249 -9.3782 90.2661
lradius 28.2473 -0 0
lwrist 5.91726 0 0
lhand -8.53333 -22.5756 -0.00114778
lfingers 7.12502 0 0
lthumb 17.3955 6.66553 -0.0012264
rclavicle -5.21188e-15 -2.41855e-14 0
rhumerus -42.5366 19.6223 -91.1366
rradius 62.5475 -0 0
rwrist -33.861 0 0
rhand -30.5273 -30.2712 -0.00160156
rfingers 7.12502 0 0
rthumb -3.82662 -60.2162 -0.00157233
25
root 7.75655 15.8102 -33.4448 6.84941 -7.95741 -6.8726
lfemur -39.622 0.460683 -5.21349
ltibia 18.9562 0 0
lfoot -15.6173 17.0199 0
ltoes -12.5122 0 0
rfemur 15.5794 8.18291 31.8121
rtibia -2.8625e-14 0 0
rfoot -12.6678 -1.95247 0
rtoes -14.7266 0 0
lowerback -6.50745 2.05693 3.84426
upperback -1.00596 2.38165 2.91131
thorax 2.64112 1.20819 1.05626
lowerneck -19.7676 -4.69866 -11.3188
upperneck 15.739 -6.2735 14.9696
head 9.06692 -2.11005 6.223
lclavicle -7.33018e-15 -2.76311e-14 0
lhumerus -41.7886 -9.51569 90.2927
lradius 28.1271 0 0
lwrist 5.69643 0 0
lhand -8.71585 -22.4315 0
lfingers 7.12502 0 0
lthumb 17.2199 6.82554 0
rclavicle -7.33018e-15 -2.76311e-14 0
rhumerus -42.7315 19.6635 -91.5541
rradius 62.5095 0 0
rwrist -33.6512 0 0
rhand -30.3479 -30.4758 0
rfingers 7.12502 0 0
rthumb -3.65339 -60.4242 0
26
root 7.78545 15.7988 -33.2855 6.96592 -7.94904 -6.9189
lfemur -39.7742 1.12276 -5.74119
ltibia 19.4759 -0 0
lfoot -15.0578 16.259 -0.0185853
ltoes -12.7144 0 0
rfemur 15.9937 7.99554 31.6663
rtibia -2.12037e-14 0 0
rfoot -12.8452 -1.72075 -0.00179422
rtoes -18.2489 0 0
lowerback -6.76916 1.9801 3.85852
upperback -1.00845 2.25852 2.99906
thorax 2.78099 1.14819 1.13619
lowerneck -19.8903 -4.67164 -11.3962
upperneck 15.8372 -6.206 14.9436
head 9.11353 -2.0803 6.24095
lclavicle -8.95152e-15 -2.25621e-14 0
lhumerus -41.9646 -9.30398 90.3737
lradius 27.8323 -0 0
lwrist 5.33602 0 0
lhand -8.98949 -22.7993 0.00439207
lfingers 7.12502 0 0
lthumb 16.9564 6.47955 0.00397774
rclavicle -8.95152e-15 -2.25621e-14 0
rhumerus -42.9158 19.8132 -91.7512
rradius 62.3034 -0 0
rwrist -33.0912 0 0
rhand -30.3827 -30.6009 0.00019028
rfingers 7.12502 0 0
rthumb -3.68705 -60.5487 0.000182917
27
root 7.81434 15.7873 -33.1262 7.08241 -7.94058 -6.96518
lfemur -39.9325 1.78341 -6.2708
ltibia 19.9957 -0 0
lfoot -14.4982 15.4979 -0.0297386
ltoes -12.9165 0 0
rfemur 16.4084 7.80921 31.5192
rtibia -1.37824e-14 0 0
rfoot -13.0227 -1.48902 -0.00287077
rtoes -21.7712 0 0
lowerback -7.03087 1.90333 3.87313
upperback -1.01114 2.13539 3.0868
thorax 2.92078 1.088 1.21598
lowerneck -20.0131 -4.64479 -11.4736
upperneck 15.9354 -6.13845 14.9178
head 9.16014 -2.05056 6.25892
lclavicle -1.05729e-14 -1.74931e-14 0
lhumerus -42.1402 -9.09202 90.4541
lradius 27.5375 -0 0
lwrist 4.97562 0 0
lhand -9.26315 -23.1671 0.00702742
lfingers 7.12502 0 0
lthumb 16.693 6.13354 0.00636447
rclavicle -1.05729e-14 -1.74931e-14 0
rhumerus -43.1008 19.9624 -91.949
rradius 62.0973 -0 0
rwrist -32.5311 0 0
rhand -30.4176 -30.7261 0.000304449
rfingers 7.12502 0 0
rthumb -3.72071 -60.6733 0.000292668
28
root 7.84323 15.7758 -32.9669 7.1989 -7.93203 -7.01144
lfemur -40.0969 2.44256 -6.80246
ltibia 20.5154 -0 0
lfoot -13.9385 14.7368 -0.0334566
ltoes -13.1187 0 0
rfemur 16.8233 7.62394 31.3708
rtibia -6.3611e-15 0 0
rfoot -13.2001 -1.25729 -0.00322962
rtoes -25.2934 0 0
lowerback -7.29259 1.82663 3.8881
upperback -1.01401 2.01226 3.17455
thorax 3.06047 1.02761 1.29561
lowerneck -20.1359 -4.6181 -11.5512
upperneck 16.0335 -6.07086 14.892
head 9.20677 -2.02083 6.27692
lclavicle -1.21942e-14 -1.24241e-14 0
lhumerus -42.3154 -8.87982 90.5337
lradius 27.2428 -0 0
lwrist 4.61521 0 0
lhand -9.53683 -23.535 0.00790589
lfingers 7.12502 0 0
lthumb 16.4295 5.78752 0.00716006
rclavicle -1.21942e-14 -1.24241e-14 0
rhumerus -43.2865 20.1109 -92.1475
rradius 61.8912 -0 0
rwrist -31.9711 0 0
rhand -30.4525 -30.8512 0.000342505
rfingers 7.12502 0 0
rthumb -3.75436 -60.7978 0.000329252
